HIERARCHY
ROOT Hips
{
 OFFSET 0.000000 0.000000 0.000000
 CHANNELS 6 Xposition Yposition Zposition Yrotation Xrotation Zrotation
 JOINT Chest
 {
  OFFSET 0.000000 10.354800 0.006500
  CHANNELS 3 Yrotation Xrotation Zrotation
  JOINT Chest2
  {
   OFFSET 0.000000 10.435800 -0.013200
   CHANNELS 3 Yrotation Xrotation Zrotation
   JOINT Chest3
   {
    OFFSET 0.000000 10.393700 0.000000
    CHANNELS 3 Yrotation Xrotation Zrotation
    JOINT Chest4
    {
     OFFSET 0.000000 10.383100 0.000000
     CHANNELS 3 Yrotation Xrotation Zrotation
     JOINT Neck
     {
      OFFSET 0.000000 15.694000 0.000000
      CHANNELS 3 Yrotation Xrotation Zrotation
      JOINT Head
      {
       OFFSET 0.000000 9.711000 -0.028000
       CHANNELS 3 Yrotation Xrotation Zrotation
       End Site
       {
        OFFSET 0.000000 18.578700 -0.014800
       }
      }
     }
     JOINT RightCollar
     {
      OFFSET -3.157200 10.367500 0.000000
      CHANNELS 3 Yrotation Xrotation Zrotation
      JOINT RightShoulder
      {
       OFFSET -14.482500 0.000000 0.000000
       CHANNELS 3 Yrotation Xrotation Zrotation
       JOINT RightElbow
       {
        OFFSET 0.000000 -31.707800 0.000000
        CHANNELS 3 Yrotation Xrotation Zrotation
        JOINT RightWrist
        {
         OFFSET 0.000000 -25.659300 0.000000
         CHANNELS 3 Yrotation Xrotation Zrotation
         End Site
         {
          OFFSET 0.000000 -18.994300 0.000000
         }
        }
       }
      }
     }
     JOINT LeftCollar
     {
      OFFSET 3.157200 10.367500 0.000000
      CHANNELS 3 Yrotation Xrotation Zrotation
      JOINT LeftShoulder
      {
       OFFSET 14.482500 0.000000 0.000000
       CHANNELS 3 Yrotation Xrotation Zrotation
       JOINT LeftElbow
       {
        OFFSET 0.000000 -31.707800 0.000000
        CHANNELS 3 Yrotation Xrotation Zrotation
        JOINT LeftWrist
        {
         OFFSET 0.000000 -25.659300 0.000000
         CHANNELS 3 Yrotation Xrotation Zrotation
         End Site
         {
          OFFSET 0.000000 -18.994300 0.000000
         }
        }
       }
      }
     }
    }
   }
  }
 }
 JOINT RightHip
 {
  OFFSET -8.365600 -0.032100 -0.003200
  CHANNELS 3 Yrotation Xrotation Zrotation
  JOINT RightKnee
  {
   OFFSET 0.000000 -43.980000 0.003100
   CHANNELS 3 Yrotation Xrotation Zrotation
   JOINT RightAnkle
   {
    OFFSET 0.000000 -42.882800 0.005200
    CHANNELS 3 Yrotation Xrotation Zrotation
    JOINT RightToe
    {
     OFFSET 0.000000 -4.915500 10.826300
     CHANNELS 3 Yrotation Xrotation Zrotation
     End Site
     {
      OFFSET 0.000000 -1.517500 6.175900
     }
    }
   }
  }
 }
 JOINT LeftHip
 {
  OFFSET 8.365600 -0.032100 -0.003200
  CHANNELS 3 Yrotation Xrotation Zrotation
  JOINT LeftKnee
  {
   OFFSET 0.000000 -43.980000 0.003100
   CHANNELS 3 Yrotation Xrotation Zrotation
   JOINT LeftAnkle
   {
    OFFSET 0.000000 -42.882800 0.005200
    CHANNELS 3 Yrotation Xrotation Zrotation
    JOINT LeftToe
    {
     OFFSET 0.000000 -4.915500 10.826300
     CHANNELS 3 Yrotation Xrotation Zrotation
     End Site
     {
      OFFSET 0.000000 -1.517500 6.175900
     }
    }
   }
  }
 }
}
MOTION
Frames: 15
Frame Time: 0.008333
-5.154918 126.301039 26.410277 175.029358 -17.294654 -6.312548 -1.835069 12.210070 4.533953 -0.178070 0.971836 0.379587 -0.304507 1.650784 0.636723 -1.697732 11.052230 4.119964 0.403974 21.788810 -2.990746 1.124532 -2.416676 -3.302798 2.860383 7.816863 -2.871029 -7.307359 -14.693211 -6.150532 -120.312864 -51.810996 146.955402 -21.052228 -20.752081 -36.856558 -3.263648 9.648176 -1.511460 23.429083 -10.861737 -6.501809 132.442568 -50.643169 -159.308139 26.899879 -11.289754 39.543411 6.163064 -64.103432 7.074688 -105.034281 80.033005 -97.970012 1.574247 -8.982272 -15.380522 0.000574 -0.007378 0.000260 -18.175852 -64.162451 14.111411 111.290924 80.603322 104.746100 -5.805804 -11.339651 4.284957 0.002335 0.000477 0.001060
-5.154721 126.301405 26.411078 175.032994 -17.299190 -6.316821 -1.839048 12.214630 4.534625 -0.184757 0.970719 0.373744 -0.300588 1.651959 0.640162 -1.703783 11.054150 4.117112 0.414624 21.790369 -2.986119 1.116114 -2.399471 -3.300020 2.867947 7.819851 -2.867046 -7.319530 -14.707989 -6.138304 -120.367298 -51.805604 147.025562 -21.054346 -20.721346 -36.844550 -3.257700 9.654237 -1.514083 23.425886 -10.861280 -6.508006 132.415859 -50.636543 -159.304126 26.911858 -11.296503 39.517386 6.163425 -64.098438 7.071713 -104.969066 80.012135 -97.905893 1.592479 -8.932963 -15.370165 0.000724 -0.002104 0.000329 -18.178778 -64.156854 14.110929 111.283689 80.605769 104.742106 -5.807217 -11.338002 4.282193 0.002263 0.001587 0.001027
-5.154701 126.301630 26.412141 175.034330 -17.301915 -6.319130 -1.841426 12.217324 4.533920 -0.185714 0.970580 0.374260 -0.302426 1.653418 0.637905 -1.715778 11.056921 4.114572 0.421470 21.798924 -2.985054 1.117605 -2.395801 -3.300345 2.875298 7.825201 -2.861858 -7.316864 -14.716962 -6.132688 -120.375042 -51.807761 147.042434 -21.044084 -20.726796 -36.811219 -3.246272 9.660471 -1.518045 23.429045 -10.864310 -6.512406 132.414541 -50.634201 -159.312469 26.925055 -11.291589 39.486402 6.167448 -64.095645 7.065150 -104.915012 80.004589 -97.853420 1.597202 -8.894178 -15.357464 -0.001323 0.001648 -0.000601 -18.179931 -64.153727 14.106515 111.251180 80.600221 104.711663 -5.799762 -11.336928 4.276175 0.002391 0.002480 0.001086
-5.154084 126.301832 26.413420 175.031942 -17.303530 -6.323210 -1.850445 12.214311 4.531408 -0.177357 0.975047 0.377760 -0.306546 1.652778 0.636711 -1.710613 11.058561 4.116013 0.404582 21.812254 -2.988478 1.132567 -2.404668 -3.303822 2.871649 7.833158 -2.859588 -7.321843 -14.720833 -6.125739 -120.406097 -51.794728 147.088490 -21.042590 -20.724957 -36.794159 -3.252281 9.668949 -1.525669 23.446676 -10.852851 -6.521070 132.400726 -50.620703 -159.332566 26.909378 -11.289643 39.478389 6.163057 -64.095209 7.071789 -104.875033 80.005763 -97.811273 1.597311 -8.869085 -15.356288 0.000571 0.001315 0.000259 -18.179777 -64.154085 14.102817 111.222411 80.593409 104.688575 -5.791322 -11.334370 4.272636 0.001326 0.001648 0.000602
-5.153257 126.302146 26.414136 175.027973 -17.307767 -6.327010 -1.846989 12.217303 4.535271 -0.182832 0.972358 0.375488 -0.307081 1.653875 0.636603 -1.713676 11.062148 4.113840 0.409153 21.817242 -2.987700 1.122713 -2.388192 -3.303948 2.880284 7.845359 -2.852726 -7.334566 -14.724831 -6.118001 -120.437036 -51.780293 147.130112 -21.047044 -20.728306 -36.769420 -3.251410 9.676493 -1.530720 23.462031 -10.852775 -6.524024 132.416033 -50.617986 -159.351663 26.884071 -11.279141 39.450569 6.157330 -64.090836 7.081519 -104.825437 80.012868 -97.761751 1.594628 -8.855066 -15.355861 0.000735 0.000934 0.000334 -18.182909 -64.151777 14.104600 111.202585 80.592307 104.672400 -5.781524 -11.330712 4.267728 0.001936 0.000321 0.000879
-5.152379 126.302566 26.414306 175.019995 -17.314461 -6.328854 -1.848936 12.221171 4.531000 -0.182778 0.972730 0.375139 -0.307272 1.654459 0.629464 -1.710477 11.064701 4.116456 0.396514 21.835659 -2.990227 1.112005 -2.361477 -3.295381 2.890533 7.855285 -2.847603 -7.354364 -14.721978 -6.100984 -120.469567 -51.765121 147.181330 -21.050656 -20.734777 -36.764392 -3.246701 9.683574 -1.527863 23.472260 -10.851958 -6.526600 132.483422 -50.623617 -159.399140 26.872566 -11.268016 39.422299 6.155638 -64.085268 7.091918 -104.836492 80.022025 -97.771088 1.585696 -8.851850 -15.359359 0.001062 0.002792 0.000482 -18.179986 -64.146742 14.102355 111.177352 80.588812 104.651287 -5.775974 -11.326976 4.261467 0.002410 -0.000792 0.001094
-5.152100 126.302696 26.414820 175.020293 -17.316612 -6.329096 -1.846531 12.222865 4.523398 -0.187293 0.972610 0.375553 -0.302015 1.655940 0.633956 -1.717836 11.064932 4.107511 0.402799 21.837365 -2.979899 1.100358 -2.342059 -3.294227 2.887942 7.868754 -2.836974 -7.368755 -14.724759 -6.085892 -120.503004 -51.744621 147.223289 -21.051560 -20.729962 -36.751064 -3.241183 9.685645 -1.518283 23.476518 -10.848879 -6.527980 132.513333 -50.624636 -159.425327 26.841130 -11.268419 39.411943 6.154604 -64.082427 7.092973 -104.856075 80.034678 -97.787879 1.566337 -8.878124 -15.361960 0.000462 0.000987 0.000210 -18.179357 -64.145425 14.092622 111.133680 80.580610 104.608735 -5.775881 -11.323291 4.259533 0.001680 -0.000479 0.000763
-5.152548 126.302805 26.414898 175.026195 -17.319057 -6.325877 -1.851388 12.225712 4.518321 -0.181420 0.975021 0.371770 -0.306855 1.655310 0.635040 -1.714076 11.065577 4.107730 0.393824 21.847405 -2.979363 1.091818 -2.337161 -3.294915 2.881731 7.867869 -2.833376 -7.388828 -14.715769 -6.071083 -120.515429 -51.738003 147.254930 -21.036819 -20.745937 -36.752145 -3.243422 9.693190 -1.524048 23.474032 -10.860315 -6.522676 132.570687 -50.628289 -159.462666 26.853622 -11.259925 39.403517 6.158332 -64.079190 7.082848 -104.886435 80.050526 -97.818212 1.553779 -8.899519 -15.364146 0.000508 0.000075 0.000231 -18.171306 -64.143639 14.071414 111.093213 80.572627 104.568052 -5.795159 -11.321564 4.263114 -0.000649 0.000080 -0.000295
-5.151828 126.303053 26.414980 175.025221 -17.322190 -6.326221 -1.847758 12.230268 4.517476 -0.183823 0.975663 0.369110 -0.306447 1.655515 0.634585 -1.711591 11.067205 4.109119 0.386977 21.853459 -2.980947 1.092060 -2.340198 -3.293756 2.875968 7.872112 -2.831266 -7.402364 -14.713748 -6.054834 -120.544201 -51.734387 147.290656 -21.032043 -20.759476 -36.753610 -3.232425 9.704314 -1.534950 23.468589 -10.872435 -6.513447 132.615138 -50.623270 -159.495390 26.845544 -11.265016 39.390048 6.166091 -64.078071 7.078304 -104.924482 80.066475 -97.852581 1.539031 -8.910400 -15.364620 0.000171 0.001311 0.000078 -18.167242 -64.140467 14.063953 111.080865 80.567102 104.554957 -5.795986 -11.320761 4.262657 -0.000560 0.001095 -0.000254
-5.151218 126.303150 26.415426 175.022022 -17.322962 -6.324616 -1.847171 12.234928 4.507049 -0.182219 0.973699 0.374065 -0.306269 1.655792 0.634990 -1.707733 11.067321 4.102739 0.382776 21.857876 -2.978977 1.092339 -2.341294 -3.288789 2.870298 7.876864 -2.821686 -7.413707 -14.709678 -6.039528 -120.586736 -51.725750 147.311179 -21.035833 -20.744064 -36.734648 -3.228799 9.706739 -1.527055 23.484626 -10.859957 -6.510886 132.662530 -50.600411 -159.543987 26.859572 -11.267097 39.380292 6.177071 -64.078482 7.070199 -104.948196 80.078293 -97.871650 1.536088 -8.942170 -15.373619 -0.000004 -0.001721 -0.000002 -18.161392 -64.140536 14.058685 111.078585 80.564701 104.552037 -5.803218 -11.321064 4.263541 -0.000209 0.001115 -0.000095
-5.150443 126.303230 26.416008 175.017552 -17.323220 -6.322840 -1.843538 12.235351 4.504836 -0.182053 0.973867 0.373971 -0.306370 1.655933 0.635630 -1.706850 11.073309 4.097047 0.378453 21.859033 -2.979871 1.079210 -2.327966 -3.295965 2.864452 7.880825 -2.822750 -7.423346 -14.705868 -6.018868 -120.602370 -51.723425 147.334703 -21.023049 -20.760034 -36.740368 -3.225936 9.705128 -1.522286 23.495562 -10.855825 -6.507667 132.666775 -50.582854 -159.550607 26.870264 -11.271897 39.365367 6.175124 -64.077391 7.074852 -104.941148 80.082457 -97.866677 1.541024 -8.981509 -15.381278 -0.000472 -0.006135 -0.000214 -18.156094 -64.141070 14.056560 111.083412 80.564639 104.557482 -5.811617 -11.321491 4.262115 0.000833 0.000974 0.000378
-5.149398 126.303490 26.416161 175.014614 -17.326378 -6.322164 -1.840077 12.238192 4.503697 -0.181808 0.973914 0.373868 -0.305260 1.656308 0.633883 -1.702688 11.074871 4.094641 0.369013 21.867053 -2.985024 1.075764 -2.327238 -3.293101 2.858287 7.889124 -2.822108 -7.437249 -14.700355 -6.001675 -120.616291 -51.719692 147.358243 -20.988082 -20.788272 -36.787755 -3.225023 9.715376 -1.531960 23.505931 -10.861772 -6.493897 132.665497 -50.564777 -159.550814 26.887636 -11.272528 39.347036 6.169607 -64.075657 7.081885 -104.932518 80.082574 -97.860492 1.542588 -8.985503 -15.383757 -0.000694 -0.006283 -0.000315 -18.151422 -64.138734 14.053459 111.093038 80.564813 104.568702 -5.815295 -11.322263 4.260018 0.001822 0.000507 0.000827
-5.148458 126.303234 26.418057 175.002640 -17.320931 -6.318579 -1.833709 12.234756 4.500698 -0.181541 0.974027 0.373609 -0.309922 1.657827 0.627954 -1.698410 11.077946 4.089661 0.376934 21.863627 -2.975619 1.069950 -2.319665 -3.298110 2.854537 7.902087 -2.820422 -7.436314 -14.712018 -5.985593 -120.634924 -51.729134 147.336434 -21.001073 -20.784345 -36.768950 -3.211811 9.710687 -1.527776 23.510982 -10.859662 -6.485014 132.664527 -50.558499 -159.548099 26.898073 -11.278591 39.334652 6.166141 -64.087690 7.095764 -104.858302 80.058243 -97.797664 1.564661 -8.968855 -15.380071 -0.001604 -0.009219 -0.000728 -18.150851 -64.145076 14.062397 111.101723 80.564457 104.575901 -5.822033 -11.321888 4.259773 0.001254 -0.000112 0.000569
-5.146869 126.303485 26.418594 174.997098 -17.323789 -6.319488 -1.838112 12.239007 4.491487 -0.179994 0.974599 0.373910 -0.306623 1.658058 0.630509 -1.700612 11.082794 4.080035 0.383074 21.865059 -2.970365 1.070168 -2.318141 -3.300844 2.864361 7.898596 -2.807959 -7.443294 -14.706650 -5.979261 -120.634771 -51.739498 147.324312 -20.999465 -20.790837 -36.774596 -3.196803 9.704856 -1.519633 23.520738 -10.853363 -6.478004 132.672536 -50.555197 -159.548817 26.912541 -11.275191 39.318786 6.163805 -64.089414 7.104166 -104.812491 80.034478 -97.752107 1.584405 -8.949017 -15.378868 -0.000598 -0.009932 -0.000271 -18.155843 -64.139593 14.070317 111.115305 80.565499 104.587245 -5.805490 -11.328885 4.251338 0.002216 0.000439 0.001006
-5.145768 126.303859 26.418509 174.990597 -17.330485 -6.316866 -1.835616 12.246154 4.485097 -0.182397 0.975936 0.370513 -0.305198 1.658826 0.630548 -1.700178 11.084833 4.075233 0.370745 21.873244 -2.987956 1.087362 -2.328256 -3.285396 2.871578 7.907960 -2.808249 -7.474595 -14.691507 -5.962579 -120.633343 -51.737608 147.333240 -20.999804 -20.797323 -36.782070 -3.187490 9.700833 -1.510120 23.575947 -10.813613 -6.476458 132.664771 -50.530787 -159.576247 26.931098 -11.270439 39.300281 6.169742 -64.085581 7.104257 -104.763790 80.007471 -97.703096 1.608776 -8.923334 -15.379430 0.000833 -0.008218 0.000378 -18.153585 -64.130798 14.068151 111.121449 80.569256 104.594057 -5.794546 -11.333453 4.245214 0.002548 0.000886 0.001157
